<svg height="512pt" viewBox="0 0 512 512" width="512pt" xmlns="http://www.w3.org/2000/svg"><path d="m502 336c0 35.898438-29.101562 65-65 65s-65-29.101562-65-65 29.101562-65 65-65 65 29.101562 65 65zm0 0" fill="#ffa785"/><path d="m140 336c0 35.898438-29.101562 65-65 65s-65-29.101562-65-65 29.101562-65 65-65 65 29.101562 65 65zm0 0" fill="#ffbea4"/><path d="m256 0-40 85.5 40 125.5 35.21875-61h110.5625l35.21875 61 35.21875-61h39.78125v-150zm0 0" fill="#202833"/><path d="m0 0v150h39.78125l35.21875 61 35.21875-61h110.5625l35.21875 61v-211zm0 0" fill="#414851"/><path d="m271 60h-15l-10 15 10 15h15zm0 0" fill="#e1e1e3"/><path d="m241 60h15v30h-15zm0 0" fill="#fff"/><path d="m301 60h30v30h-30zm0 0" fill="#e1e1e3"/><path d="m181 60h30v30h-30zm0 0" fill="#fff"/><path d="m0 422v90h121l135-90zm0 0" fill="#66fcf1"/><path d="m512 422h-256l135 90h121zm0 0" fill="#c782ff"/><path d="m331 401-50 55.5 50 55.5h60v-51c0-33.136719-26.863281-60-60-60zm0 0" fill="#e00016"/><path d="m185.5 401c-33.136719 0-60 26.863281-60 60v51h60l50-55.5zm0 0" fill="#ff4547"/><path d="m256 401-35 55.5 35 55.5h75v-111zm0 0" fill="#a00d20"/><path d="m185.5 400h75v111h-75zm0 0" fill="#e00016"/><path d="m256 241-32.5 65 32.5 65c35.898438 0 65-29.101562 65-65s-29.101562-65-65-65zm0 0" fill="#ffa785"/><path d="m191 306c0 35.898438 29.101562 65 65 65v-130c-35.898438 0-65 29.101562-65 65zm0 0" fill="#ffbea4"/></svg>